<svg xmlns="http://www.w3.org/2000/svg" viewBox="0 0 64 64" width="64" height="64">
  <title>Sousbot favicon</title>
  <defs>
    <g id="pot-glyph">
      <path d="M40 8c-5 6 5 11 0 18" fill="none" stroke="currentColor" stroke-width="6" stroke-linecap="round"/>
      <path d="M60 8c-5 6 5 11 0 18" fill="none" stroke="currentColor" stroke-width="6" stroke-linecap="round"/>
      <rect x="20" y="33" width="60" height="7" rx="3.5" fill="currentColor"/>
      <path d="M26 46h48v20a14 14 0 0 1-14 14H40a14 14 0 0 1-14-14z" fill="currentColor"/>
      <rect x="14" y="50" width="7" height="12" rx="3.5" fill="currentColor"/>
      <rect x="79" y="50" width="7" height="12" rx="3.5" fill="currentColor"/>
    </g>
  </defs>
  <rect x="0" y="0" width="64" height="64" rx="17.92" fill="#D68D50"/>
  <g transform="translate(10.24,10.24) scale(0.4352)">
    <use href="#pot-glyph" style="color:#FFFFFF"/>
  </g>
</svg>
