<svg xmlns="http://www.w3.org/2000/svg" viewBox="0 0 100 100" width="100" height="100">
  <title>Sousbot app icon</title>
  <defs>
    <linearGradient id="iconGrad" x1="0" y1="0" x2="100" y2="100" gradientUnits="userSpaceOnUse">
      <stop offset="0" stop-color="#D68D50"/>
      <stop offset="1" stop-color="#945623"/>
    </linearGradient>
    <g id="pot-glyph">
      <path d="M40 8c-5 6 5 11 0 18" fill="none" stroke="currentColor" stroke-width="6" stroke-linecap="round"/>
      <path d="M60 8c-5 6 5 11 0 18" fill="none" stroke="currentColor" stroke-width="6" stroke-linecap="round"/>
      <rect x="20" y="33" width="60" height="7" rx="3.5" fill="currentColor"/>
      <path d="M26 46h48v20a14 14 0 0 1-14 14H40a14 14 0 0 1-14-14z" fill="currentColor"/>
      <rect x="14" y="50" width="7" height="12" rx="3.5" fill="currentColor"/>
      <rect x="79" y="50" width="7" height="12" rx="3.5" fill="currentColor"/>
    </g>
  </defs>
  <rect x="0" y="0" width="100" height="100" rx="22.50" fill="url(#iconGrad)"/>
  <ellipse cx="50.0" cy="30.0" rx="42.0" ry="22.0" fill="#FFFFFF" opacity="0.16"/>
  <g transform="translate(19.0,19.0) scale(0.62)">
    <use href="#pot-glyph" style="color:#FFFFFF"/>
  </g>
</svg>
