<svg xmlns="http://www.w3.org/2000/svg" viewBox="0 0 1200 630" width="1200" height="630">
  <title>Sousbot OG Image</title>
  <defs>
    <linearGradient id="ogGrad" x1="0" y1="0" x2="1200" y2="630" gradientUnits="userSpaceOnUse">
      <stop offset="0" stop-color="#D68D50"/>
      <stop offset="1" stop-color="#945623"/>
    </linearGradient>
  </defs>
  <rect x="0" y="0" width="1200" height="630" fill="url(#ogGrad)"/>

  <!-- Logo lockup: pot glyph + wordmark -->
  <!-- Pot glyph on left -->
  <g transform="translate(100,160) scale(5.2)">
    <defs>
      <g id="pot-glyph-og">
        <path d="M40 8c-5 6 5 11 0 18" fill="none" stroke="currentColor" stroke-width="6" stroke-linecap="round"/>
        <path d="M60 8c-5 6 5 11 0 18" fill="none" stroke="currentColor" stroke-width="6" stroke-linecap="round"/>
        <rect x="20" y="33" width="60" height="7" rx="3.5" fill="currentColor"/>
        <path d="M26 46h48v20a14 14 0 0 1-14 14H40a14 14 0 0 1-14-14z" fill="currentColor"/>
        <rect x="14" y="50" width="7" height="12" rx="3.5" fill="currentColor"/>
        <rect x="79" y="50" width="7" height="12" rx="3.5" fill="currentColor"/>
      </g>
    </defs>
    <use href="#pot-glyph-og" style="color:#FFFFFF"/>
  </g>

  <!-- Wordmark on right -->
  <g transform="translate(430,160) scale(4.25) translate(-14.9219,-46.7773)">
    <path d="m 57.236328,151.36719 q -19.140625,0 -30.625,-8.68164 -11.416015,-8.68164 -11.689453,-26.31836 h 23.173828 q 0.410156,7.45117 5.46875,11.21094 5.126953,3.75976 13.398438,3.75976 7.519531,0 11.826171,-3.00781 4.306641,-3.07617 4.306641,-7.92969 0,-4.375 -4.101562,-6.9043 -4.033204,-2.59765 -12.373047,-4.51171 l -10.800782,-2.5293 q -13.193359,-3.00781 -20.71289,-9.843752 -7.519531,-6.835937 -7.519531,-18.320312 0,-9.433594 5.058593,-16.47461 5.126953,-7.109375 14.082032,-11.074219 8.955078,-3.964843 20.507812,-3.964843 11.826172,0 20.507813,4.033203 8.68164,3.964844 13.466796,11.142578 4.785157,7.109375 4.921875,16.542969 H 72.958984 q -0.478515,-5.53711 -4.511718,-8.613282 -4.033204,-3.076171 -11.279297,-3.076171 -7.246094,0 -10.9375,2.802734 -3.691407,2.802734 -3.691407,7.041016 0,4.716796 4.101563,7.314453 4.101562,2.529297 10.9375,4.033203 l 8.818359,2.050781 q 14.765625,3.28125 22.900391,10.732422 8.203125,7.45117 8.203125,19.6875 0,14.49219 -10.664063,22.69531 -10.664062,8.20313 -29.599609,8.20313 z m 86.525392,0.0684 q -11.96289,0 -20.57617,-4.92188 -8.61328,-4.99023 -13.26172,-13.80859 -4.58008,-8.88672 -4.58008,-20.64453 0,-11.75782 4.58008,-20.644534 4.64844,-8.886719 13.26172,-13.808594 8.61328,-4.990235 20.57617,-4.990235 11.96289,0 20.50781,4.990235 8.61328,4.921875 13.19336,13.808594 4.64844,8.886714 4.64844,20.644534 0,11.75781 -4.64844,20.64453 -4.58008,8.81836 -13.19336,13.80859 -8.54492,4.92188 -20.50781,4.92188 z m 0,-18.25196 q 6.83594,0 10.45898,-5.81054 3.62305,-5.87891 3.62305,-15.44922 0,-9.57031 -3.62305,-15.312502 -3.62304,-5.742187 -10.45898,-5.742187 -6.83594,0 -10.45899,5.742187 -3.62304,5.742192 -3.62304,15.312502 0,9.57031 3.62304,15.44922 3.62305,5.81054 10.45899,5.81054 z m 75.72461,17.77344 q -12.03125,0 -19.27735,-7.86133 -7.24609,-7.86133 -7.24609,-20.84961 V 73.574219 h 23.85742 v 44.023441 q 0,6.42578 3.28125,10.11718 3.34961,3.62305 9.16016,3.62305 5.8789,0 9.43359,-3.69141 3.62305,-3.75976 3.62305,-10.45898 V 73.574219 h 23.85742 V 150 h -22.42187 l -0.3418,-16.54297 q -3.07617,7.99805 -8.88672,12.7832 -5.81055,4.7168 -15.03906,4.7168 z m 92.60937,0.47852 q -14.69726,0 -24.19922,-6.15235 -9.43359,-6.2207 -11.41601,-17.1582 l 22.14844,-3.48633 q 1.43554,4.99024 4.85351,7.51953 3.41797,2.5293 9.50195,2.5293 4.99024,0 7.86133,-1.70898 2.8711,-1.77735 2.8711,-4.64844 0,-4.99024 -9.36524,-6.83594 l -13.33008,-2.59766 q -22.62695,-4.30664 -22.62695,-22.011714 0,-11.416016 9.0918,-17.841797 9.16015,-6.425782 24.54101,-6.425782 14.35547,0 23.03711,5.673829 8.68164,5.673828 10.66407,15.517578 l -21.05469,3.349609 q -2.32422,-8.134766 -12.23633,-8.134766 -4.30664,0 -7.31445,1.777344 -2.93946,1.708985 -2.93946,4.648438 0,2.324218 1.84571,4.101562 1.8457,1.708989 6.76757,2.666019 l 14.62891,2.73437 q 22.49024,4.23828 22.49024,20.64453 0,7.86133 -4.64844,13.67188 -4.58008,5.81054 -12.64649,9.02344 -8.0664,3.14453 -18.52539,3.14453 z m 91.92578,-0.3418 q -8.75,0 -14.01367,-4.10156 -5.19531,-4.16992 -7.45117,-9.36524 h -0.82031 V 150 H 358.15234 V 48.144531 h 23.85743 v 38.554688 h 0.54687 q 1.43555,-3.417969 4.16992,-6.63086 2.73438,-3.28125 7.04102,-5.332031 4.30664,-2.119141 10.39062,-2.119141 8.06641,0 14.97071,4.238282 6.97265,4.238281 11.21093,12.919922 4.30664,8.68164 4.30664,22.080079 0,12.98828 -4.16992,21.73828 -4.10156,8.68164 -11.07422,13.125 -6.90429,4.375 -15.38086,4.375 z M 395.88672,132.5 q 6.9043,0 10.52734,-5.67383 3.69141,-5.67383 3.69141,-14.9707 0,-9.29688 -3.69141,-14.902345 -3.62304,-5.673828 -10.52734,-5.673828 -6.83594,0 -10.66406,5.537109 -3.75977,5.537114 -3.75977,15.039064 0,9.36523 3.75977,15.03906 3.82812,5.60547 10.66406,5.60547 z m 85.02148,18.93555 q -11.96289,0 -20.57617,-4.92188 -8.61328,-4.99023 -13.26172,-13.80859 -4.58008,-8.88672 -4.58008,-20.64453 0,-11.75782 4.58008,-20.644534 4.64844,-8.886719 13.26172,-13.808594 8.61328,-4.990235 20.57617,-4.990235 11.96289,0 20.50782,4.990235 8.61328,4.921875 13.19335,13.808594 4.64844,8.886714 4.64844,20.644534 0,11.75781 -4.64844,20.64453 -4.58007,8.81836 -13.19335,13.80859 -8.54493,4.92188 -20.50782,4.92188 z m 0,-18.25196 q 6.83594,0 10.45899,-5.81054 3.62304,-5.87891 3.62304,-15.44922 0,-9.57031 -3.62304,-15.312502 -3.62305,-5.742187 -10.45899,-5.742187 -6.83593,0 -10.45898,5.742187 -3.62305,5.742192 -3.62305,15.312502 0,9.57031 3.62305,15.44922 3.62305,5.81054 10.45898,5.81054 z m 90.42188,-59.609371 v 17.705078 h -13.74024 v 35.341793 q 0,5.94727 6.08399,5.94727 1.23047,0 3.41797,-0.27344 2.25586,-0.3418 3.21289,-0.54687 l 3.07617,17.36328 q -4.0332,1.16211 -7.79297,1.57226 -3.75977,0.41016 -7.10937,0.41016 -12.16797,0 -18.45704,-5.67383 -6.28906,-5.74219 -6.28906,-16.67969 V 91.279297 H 523.61523 V 73.574219 h 10.11719 V 55.390625 h 23.85742 v 18.183594 z" fill="#FFFFFF"/>
  </g>

  <!-- Optional tagline at bottom -->
  <text x="600" y="580" font-family="system-ui, -apple-system, sans-serif" font-size="48" font-weight="600" fill="#FFFFFF" text-anchor="middle">Photo in, recipe out</text>
</svg>
